<svg width="31.75mm" height="8.2922mm" version="1.1" viewBox="0 0 31.749999 8.292186" xmlns="http://www.w3.org/2000/svg" xmlns:xlink="http://www.w3.org/1999/xlink">
	<title>SystemX</title>
	<defs>
		<clipPath id="clipPath100">
			<use width="100%" height="100%" xlink:href="#g96"/>
		</clipPath>
	</defs>
	<g transform="translate(-244.95 230.93)">
		<g transform="translate(-47.687 2.3173)">
			<g clip-path="url(#clipPath100)"></g>
		</g>
		<g transform="matrix(.59939 0 0 .59939 104.49 -90.854)">
			<g transform="scale(.89364 1.119)" fill-opacity=".4902" aria-label="SYSTEM">
				<g fill-opacity="1">
					<g transform="matrix(1.119 0 0 .89364 101.57 -301.86)" fill="#a2a5aa">
						<g transform="scale(.86518 1.1558)" fill="#a2a5aa" fill-opacity="1" aria-label="SYSTEM">
							<path d="m169.93 92.935-0.44499 0.30534c-0.26916-0.30534-0.43576-0.64172-1.3873-0.64172-0.95158 0-1.7658 0.68661-1.7658 1.5758 0 1.5646 4.13 1.5646 4.1202 3.6019 0 1.0581-1.0301 2.0261-2.3544 2.0261-1.344 0-2.0869-0.44792-2.0722-0.89504l0.46746-0.19995c0 0.46146 0.55509 0.64476 1.6048 0.64476 1.03 0 1.962-0.69786 1.962-1.5758 0-1.5983-4.1104-1.5758-4.1202-3.6019 0-1.0918 0.93211-2.0385 2.1582-2.0261 1.3873 0.01414 1.6245 0.68451 1.8323 0.78662z" stroke-width=".39375"/>
							<g stroke-width=".42177">
								<path d="m174.89 96.043v3.5343 0.22512h-0.45024v-0.22512-3.5343l-2.3525-3.5456s-0.22512-0.34893-0.22512-0.34893h0.54028l0.0675 0.1013 2.1949 3.3205s2.1499-3.3205 2.1499-3.3205l0.0675-0.1013h0.54029s-0.22512 0.34893-0.22512 0.34893l-2.3074 3.5456z"/>
								<path d="m189.38 92.148v0.45024l-1.7815 2e-6v7.2037h-0.45024v-7.2037l-1.6016-2e-6v-0.45024z"/>
								<path d="m195.5 92.148v0.45024l-3.0158 9e-6v3.1516c1.2081 0 1.8077-5e-6 3.0158-5e-6v0.45023l-3.0158 8e-6v3.1516c1.6509 0 1.3649-4e-6 3.0158-4e-6v0.45023c-1.7259 0-1.515 7e-6 -3.2409 7e-6h-0.22512v-7.654h0.22512z"/>
								<path d="m199.08 99.577v0.22512h-0.45023v-0.22512-7.2037-0.22512h0.37144l0.0563 0.13507s3.0616 6.7423 3.0616 6.7423l3.0503-6.7423 0.0563-0.13507h0.37144v0.22512l0.0113 7.2037v0.22512h-0.45024v-0.22512l-0.0112-6.157-2.8252 6.247-0.0563 0.13507h-0.29265l-0.0563-0.13507s-2.8365-6.247-2.8365-6.247v6.157z"/>
							</g>
							<path d="m183.3 92.935-0.44499 0.30534c-0.26916-0.30534-0.43576-0.64172-1.3873-0.64172-0.95158 0-1.7658 0.68661-1.7658 1.5758 0 1.5646 4.13 1.5646 4.1202 3.6019 0 1.0581-1.0301 2.0261-2.3544 2.0261-1.344 0-2.0869-0.44792-2.0722-0.89504l0.46746-0.19995c0 0.46146 0.55509 0.64476 1.6048 0.64476 1.03 0 1.962-0.69786 1.962-1.5758 0-1.5983-4.1104-1.5758-4.1202-3.6019 0-1.0918 0.93211-2.0385 2.1582-2.0261 1.3873 0.01414 1.6245 0.68451 1.8323 0.78662z"/>
						</g>
					</g>
					<g transform="translate(-1.2305 -26.86)" stroke-width=".084667">
						<path d="m313.67-180.18 1.6956-1.8084h7.3678l-5.3121 6.0166m-3.7499 4.4773-1.5904 1.8692h-7.361l5.2767-5.9184" fill="#a2a5aa"/>
						<path d="m317.43-175.98-7.4322-3e-5 -5.2767-6.011h7.361m-2.0843 6.4447h7.4322l5.3044 5.9184h-7.3678" fill="#008eae"/>
						<path d="m310-175.54 3.6696 4.0492-0.40544 0.47471z" fill="#6e6261"/>
					</g>
				</g>
			</g>
		</g>
		<text x="110.58124" y="65.393745" fill="#000000" font-family="'Arial Nova Cond Light'" font-size="3.8861px" font-weight="300" letter-spacing="0px" stroke-width=".26458" word-spacing="0px" style="line-height:125%" xml:space="preserve"><tspan x="0" y="0" stroke-width=".26458"><tspan dx="0" dy="0" fill="#000000" font-family="'Arial Nova Cond Light'" font-size="3.8861px" font-weight="300" stroke-width=".26458"/></tspan></text>
	</g>
</svg>
